<?xml version="1.0" encoding="UTF-8"?>
<!-- Generated by Pixelmator Pro 3.3 -->
<svg width="1024" height="1024" viewBox="0 0 1024 1024" xmlns="http://www.w3.org/2000/svg" xmlns:xlink="http://www.w3.org/1999/xlink">
    <g id="obsidian">
        <path id="path1" fill="#34208c" stroke="none" d="M 629.410217 73.583557 L 342.636993 227.099487 L 225.9375 472.724915 L 403.248352 867.480042 L 654.740295 950.817261 L 699.972656 861.339417 L 795.865234 305.173279 L 629.410217 73.583557 Z"/>
        <path id="path2" fill="#6c56cc" stroke="none" d="M 796.605408 304.51532 L 619.294556 199.247314 L 375.039825 386.098083 L 655.480469 950.159302 L 700.71283 860.681458 L 796.605408 304.51532 Z"/>
        <path id="path3" fill="#af9ff4" stroke="none" d="M 796.440918 305.081848 L 629.98584 73.492188 L 619.130127 199.813843 L 796.440918 305.081848 Z"/>
        <path id="path4" fill="#4a37a0" stroke="none" d="M 618.883362 199.941772 L 629.739136 73.620117 L 342.965942 227.135986 L 374.628601 386.792542 L 618.883362 199.941772 Z M 374.975861 386.938721 L 403.92453 867.662781 L 655.416504 951 L 374.975861 386.938721 Z"/>
    </g>
    <g id="zhihu">
        <linearGradient id="linearGradient1" x1="521.00068" y1="809.402672" x2="589.982796" y2="809.818609" gradientUnits="userSpaceOnUse" gradientTransform="matrix(0.898794 -0.438371 0.438371 0.898794 -298.418049 316.58982)">
            <stop offset="0" stop-color="#1c70f2" stop-opacity="1"/>
            <stop offset="1" stop-color="#1ac9fb" stop-opacity="1"/>
        </linearGradient>
        <path id="path5" fill="url(#linearGradient1)" stroke="none" d="M 543.851135 812.463013 L 577.35968 797.323669 C 573.15448 788.701782 566.698547 785.656799 566.698547 785.656799 L 538.474976 799.829285 C 532.197571 785.391846 523.876282 766.921143 520.770691 760.048218 L 546.037964 742.991211 C 546.037964 742.991211 539.717041 730.438232 536.748962 732.608032 C 533.838867 734.735474 496.573944 761.978027 496.573944 761.978027 C 496.573944 761.978027 491.714203 746.149597 491.392639 737.519653 C 491.392639 737.519653 481.091583 745.202515 486.322723 765.238892 C 491.416687 784.749817 491.494202 798.071716 491.880188 800.229309 C 492.264618 802.378113 495.14325 799.434509 496.151306 797.695679 C 497.170776 795.937134 502.418549 788.714844 498.429474 775.129944 L 509.569214 767.609924 C 513.706299 775.665649 526.395142 800.423035 528.383362 804.896729 L 504.840973 816.718567 C 503.141632 820.973022 506.075989 829.529907 506.075989 829.529907 L 532.999329 817.365845 C 536.279297 827.171509 539.88147 839.903931 539.871704 847.229492 C 539.856384 858.538818 541.654663 868.086426 532.488342 886.783508 C 532.488342 886.783508 530.986206 889.439819 538.623108 886.984436 C 546.691956 884.390015 553.924194 880.085571 553.720825 865.776489 C 553.611816 858.115356 552.710632 848.415771 550.990479 838.645386 L 550.997009 838.679688 L 597.292114 863.953735 C 597.292114 863.953735 596.990356 853.220459 588.633606 843.547974 L 554.327454 826.329834 L 550.16095 834.24884 L 550.166321 834.2771 C 548.618225 826.602356 546.571472 819.136169 544.038086 812.920044 C 543.976929 812.770203 543.91449 812.617371 543.851135 812.463013 Z"/>
        <linearGradient id="linearGradient2" x1="695.759676" y1="775.020459" x2="583.12569" y2="771.886974" gradientUnits="userSpaceOnUse" gradientTransform="matrix(0.898794 -0.438371 0.438371 0.898794 -278.291612 345.269936)">
            <stop offset="0" stop-color="#1c70f2" stop-opacity="1"/>
            <stop offset="1" stop-color="#1ac9fb" stop-opacity="1"/>
        </linearGradient>
        <path id="path6" fill="url(#linearGradient2)" stroke="none" d="M 547.048096 719.931519 L 609.25647 847.550049 L 620.639038 838.535583 L 631.952942 849.400635 L 641.57489 821.955322 L 659.126526 808.055237 L 610.517273 708.334839 L 547.048096 719.931519 Z M 645.807312 803.081543 L 636.011536 810.045654 L 627.898254 831.295044 L 618.774048 822.300415 L 614.929749 825.033386 L 568.912354 730.630127 L 606.177124 721.781799 L 645.80719 803.081604 Z"/>
    </g>
</svg>
